<svg xmlns="http://www.w3.org/2000/svg" width="1000" height="1000">
  <path fill="#000" d="M0 160C0 71.635 71.634 0 160 0h680c88.366 0 160 71.634 160 160v680c0 88.366-71.634 160-160 160H160C71.635 1000 0 928.366 0 840V160Z"/>
  <path fill="#f00" d="M681.641 499.023c0 99.778-80.886 180.665-180.664 180.665-99.778 0-180.665-80.887-180.665-180.665 0-99.778 80.887-180.664 180.665-180.664 99.778 0 180.664 80.886 180.664 180.664Z"/>
  <path fill="#fff" fill-rule="evenodd" d="M500.977 708.984c115.958 0 209.961-94.002 209.961-209.961 0-115.958-94.003-209.961-209.961-209.961-115.959 0-209.961 94.003-209.961 209.961 0 115.959 94.002 209.961 209.961 209.961Zm0 17.578c125.666 0 227.539-101.872 227.539-227.539 0-125.666-101.873-227.539-227.539-227.539-125.667 0-227.539 101.873-227.539 227.539 0 125.667 101.872 227.539 227.539 227.539Z"/>
</svg>